<svg width="156" height="180" viewBox="0 0 156 180" fill="none" xmlns="http://www.w3.org/2000/svg">
<path d="M38.5384 175L34.3764 160.455H37.7358L40.1435 170.561H40.2642L42.9205 160.455H45.7969L48.446 170.582H48.5739L50.9815 160.455H54.3409L50.179 175H47.1818L44.4119 165.49H44.2983L41.5355 175H38.5384ZM57.869 175.206C57.1729 175.206 56.5527 175.085 56.0082 174.844C55.4637 174.598 55.0328 174.235 54.7156 173.757C54.4031 173.274 54.2468 172.673 54.2468 171.953C54.2468 171.347 54.3581 170.838 54.5806 170.426C54.8031 170.014 55.1062 169.683 55.4897 169.432C55.8732 169.181 56.3088 168.991 56.7965 168.864C57.2889 168.736 57.805 168.646 58.3448 168.594C58.9793 168.527 59.4906 168.466 59.8789 168.409C60.2672 168.348 60.5489 168.258 60.7241 168.139C60.8993 168.021 60.9869 167.846 60.9869 167.614V167.571C60.9869 167.121 60.8448 166.773 60.5607 166.527C60.2814 166.281 59.8836 166.158 59.3675 166.158C58.823 166.158 58.3898 166.278 58.0678 166.52C57.7459 166.757 57.5328 167.055 57.4286 167.415L54.6303 167.188C54.7724 166.525 55.0517 165.952 55.4684 165.469C55.8851 164.981 56.4225 164.607 57.0806 164.347C57.7435 164.081 58.5105 163.949 59.3817 163.949C59.9878 163.949 60.5678 164.02 61.1218 164.162C61.6805 164.304 62.1753 164.524 62.6062 164.822C63.0418 165.121 63.3851 165.504 63.636 165.973C63.887 166.437 64.0124 166.993 64.0124 167.642V175H61.1431V173.487H61.0579C60.8827 173.828 60.6483 174.129 60.3548 174.389C60.0612 174.645 59.7085 174.846 59.2965 174.993C58.8846 175.135 58.4087 175.206 57.869 175.206ZM58.7354 173.118C59.1805 173.118 59.5735 173.03 59.9144 172.855C60.2553 172.675 60.5228 172.434 60.717 172.131C60.9111 171.828 61.0082 171.484 61.0082 171.101V169.943C60.9135 170.005 60.7833 170.062 60.6175 170.114C60.4566 170.161 60.2743 170.206 60.0707 170.249C59.8671 170.286 59.6635 170.322 59.4599 170.355C59.2563 170.384 59.0716 170.41 58.9059 170.433C58.5508 170.485 58.2406 170.568 57.9755 170.682C57.7103 170.795 57.5044 170.949 57.3576 171.143C57.2108 171.333 57.1374 171.57 57.1374 171.854C57.1374 172.266 57.2866 172.58 57.5849 172.798C57.8879 173.011 58.2714 173.118 58.7354 173.118ZM69.1012 171.861L69.1083 168.232H69.5487L73.043 164.091H76.516L71.8214 169.574H71.104L69.1012 171.861ZM66.3597 175V160.455H69.3853V175H66.3597ZM73.1779 175L69.9677 170.249L71.9847 168.111L76.7219 175H73.1779ZM82.5227 175.213C81.4006 175.213 80.4347 174.986 79.625 174.531C78.8201 174.072 78.1998 173.423 77.7642 172.585C77.3286 171.742 77.1108 170.746 77.1108 169.595C77.1108 168.473 77.3286 167.488 77.7642 166.641C78.1998 165.793 78.813 165.133 79.6037 164.659C80.3991 164.186 81.3319 163.949 82.402 163.949C83.1217 163.949 83.7917 164.065 84.4119 164.297C85.0369 164.524 85.5814 164.867 86.0455 165.327C86.5142 165.786 86.8788 166.364 87.1392 167.06C87.3996 167.751 87.5298 168.561 87.5298 169.489V170.32H78.3182V168.445H84.6818C84.6818 168.009 84.5871 167.623 84.3977 167.287C84.2083 166.951 83.9455 166.688 83.6094 166.499C83.2779 166.304 82.892 166.207 82.4517 166.207C81.9924 166.207 81.5852 166.314 81.2301 166.527C80.8797 166.735 80.6051 167.017 80.4062 167.372C80.2074 167.723 80.1056 168.113 80.1009 168.544V170.327C80.1009 170.866 80.2003 171.333 80.3991 171.726C80.6027 172.119 80.8892 172.422 81.2585 172.635C81.6278 172.848 82.0658 172.955 82.5724 172.955C82.9086 172.955 83.2164 172.907 83.4957 172.812C83.7751 172.718 84.0142 172.576 84.2131 172.386C84.4119 172.197 84.5634 171.965 84.6676 171.69L87.4659 171.875C87.3239 172.547 87.0327 173.134 86.5923 173.636C86.1567 174.134 85.5933 174.522 84.902 174.801C84.2154 175.076 83.4223 175.213 82.5227 175.213ZM107.556 167.727C107.556 169.313 107.256 170.663 106.654 171.776C106.058 172.888 105.243 173.738 104.211 174.325C103.184 174.908 102.029 175.199 100.745 175.199C99.4528 175.199 98.2927 174.905 97.2653 174.318C96.2378 173.731 95.4258 172.881 94.8292 171.768C94.2326 170.656 93.9343 169.309 93.9343 167.727C93.9343 166.141 94.2326 164.792 94.8292 163.679C95.4258 162.566 96.2378 161.719 97.2653 161.136C98.2927 160.549 99.4528 160.256 100.745 160.256C102.029 160.256 103.184 160.549 104.211 161.136C105.243 161.719 106.058 162.566 106.654 163.679C107.256 164.792 107.556 166.141 107.556 167.727ZM104.439 167.727C104.439 166.7 104.285 165.833 103.977 165.128C103.674 164.422 103.245 163.887 102.691 163.523C102.137 163.158 101.489 162.976 100.745 162.976C100.002 162.976 99.3533 163.158 98.7994 163.523C98.2454 163.887 97.8145 164.422 97.5067 165.128C97.2037 165.833 97.0522 166.7 97.0522 167.727C97.0522 168.755 97.2037 169.621 97.5067 170.327C97.8145 171.032 98.2454 171.567 98.7994 171.932C99.3533 172.296 100.002 172.479 100.745 172.479C101.489 172.479 102.137 172.296 102.691 171.932C103.245 171.567 103.674 171.032 103.977 170.327C104.285 169.621 104.439 168.755 104.439 167.727ZM112.803 168.693V175H109.778V164.091H112.661V166.016H112.789C113.031 165.381 113.435 164.879 114.004 164.51C114.572 164.136 115.261 163.949 116.07 163.949C116.828 163.949 117.488 164.115 118.052 164.446C118.615 164.777 119.053 165.251 119.366 165.866C119.678 166.477 119.835 167.206 119.835 168.054V175H116.809V168.594C116.814 167.926 116.643 167.405 116.298 167.031C115.952 166.652 115.476 166.463 114.87 166.463C114.463 166.463 114.103 166.551 113.79 166.726C113.483 166.901 113.241 167.157 113.066 167.493C112.896 167.824 112.808 168.224 112.803 168.693Z" fill="white"/>
<g clip-path="url(#clip0_32_5)">
<path d="M124.8 23.4H31.2C24.7383 23.4 19.5 28.6383 19.5 35.1V97.5C19.5 103.962 24.7383 109.2 31.2 109.2H124.8C131.262 109.2 136.5 103.962 136.5 97.5V35.1C136.5 28.6383 131.262 23.4 124.8 23.4Z" fill="#42A5F5"/>
<path d="M120.9 31.2H35.1C30.7922 31.2 27.3 34.6922 27.3 39V93.6C27.3 97.9078 30.7922 101.4 35.1 101.4H120.9C125.208 101.4 128.7 97.9078 128.7 93.6V39C128.7 34.6922 125.208 31.2 120.9 31.2Z" fill="#BBDEFB"/>
<path d="M46.8 109.2H109.2L101.4 132.6H54.6L46.8 109.2Z" fill="#607D8B"/>
<path d="M78 85.8C88.7696 85.8 97.5 77.0695 97.5 66.3C97.5 55.5304 88.7696 46.8 78 46.8C67.2304 46.8 58.5 55.5304 58.5 66.3C58.5 77.0695 67.2304 85.8 78 85.8Z" stroke="#FF5733" stroke-width="6.5"/>
<path d="M78 42.9V58.5" stroke="#FF5733" stroke-width="6.5" stroke-linecap="round"/>
</g>
<defs>
<clipPath id="clip0_32_5">
<rect width="156" height="156" fill="white"/>
</clipPath>
</defs>
</svg>
