<svg width="305" height="305" viewBox="0 0 305 305" fill="none" xmlns="http://www.w3.org/2000/svg">
<rect width="305" height="305" rx="152.5" fill="#3B5471"/>
<rect x="113" y="112" width="80" height="80" rx="40" fill="#3B5471"/>
<g clip-path="url(#clip0_3005_35)">
<path d="M177 124H129C125.686 124 123 126.686 123 130V162C123 165.314 125.686 168 129 168H177C180.314 168 183 165.314 183 162V130C183 126.686 180.314 124 177 124Z" fill="#42A5F5"/>
<path d="M175 128H131C128.791 128 127 129.791 127 132V160C127 162.209 128.791 164 131 164H175C177.209 164 179 162.209 179 160V132C179 129.791 177.209 128 175 128Z" fill="#BBDEFB"/>
<path d="M137 168H169L165 180H141L137 168Z" fill="#607D8B"/>
<path d="M153 156C158.523 156 163 151.523 163 146C163 140.477 158.523 136 153 136C147.477 136 143 140.477 143 146C143 151.523 147.477 156 153 156Z" stroke="#FF5733" stroke-width="3"/>
<path d="M153 134V142" stroke="#FF5733" stroke-width="3" stroke-linecap="round"/>
</g>
<defs>
<clipPath id="clip0_3005_35">
<rect width="80" height="80" fill="white" transform="translate(113 112)"/>
</clipPath>
</defs>
</svg>
