<svg width="400" height="400" viewBox="0 0 400 400" fill="none" xmlns="http://www.w3.org/2000/svg">
<g clip-path="url(#clip0_1_95)" filter="url(#filter0_dd_1_95)">
<path d="M238.8 153.65H160.2C154.774 153.65 150.375 158.049 150.375 163.475V215.875C150.375 221.301 154.774 225.7 160.2 225.7H238.8C244.226 225.7 248.625 221.301 248.625 215.875V163.475C248.625 158.049 244.226 153.65 238.8 153.65Z" fill="#42A5F5"/>
<path d="M235.525 160.2H163.475C159.858 160.2 156.925 163.133 156.925 166.75V212.6C156.925 216.217 159.858 219.15 163.475 219.15H235.525C239.142 219.15 242.075 216.217 242.075 212.6V166.75C242.075 163.133 239.142 160.2 235.525 160.2Z" fill="#BBDEFB"/>
<path d="M173.3 225.7H225.7L219.15 245.35H179.85L173.3 225.7Z" fill="#607D8B"/>
<path d="M199.5 206.05C208.544 206.05 215.875 198.719 215.875 189.675C215.875 180.631 208.544 173.3 199.5 173.3C190.456 173.3 183.125 180.631 183.125 189.675C183.125 198.719 190.456 206.05 199.5 206.05Z" stroke="#FF5733" stroke-width="5"/>
<path d="M199.5 170.025V183.125" stroke="#FF5733" stroke-width="5" stroke-linecap="round"/>
</g>
<defs>
<filter id="filter0_dd_1_95" x="130" y="134" width="139" height="139" filterUnits="userSpaceOnUse" color-interpolation-filters="sRGB">
<feFlood flood-opacity="0" result="BackgroundImageFix"/>
<feColorMatrix in="SourceAlpha" type="matrix" values="0 0 0 0 0 0 0 0 0 0 0 0 0 0 0 0 0 0 127 0" result="hardAlpha"/>
<feOffset dy="4"/>
<feGaussianBlur stdDeviation="2"/>
<feComposite in2="hardAlpha" operator="out"/>
<feColorMatrix type="matrix" values="0 0 0 0 0 0 0 0 0 0 0 0 0 0 0 0 0 0 0.25 0"/>
<feBlend mode="normal" in2="BackgroundImageFix" result="effect1_dropShadow_1_95"/>
<feColorMatrix in="SourceAlpha" type="matrix" values="0 0 0 0 0 0 0 0 0 0 0 0 0 0 0 0 0 0 127 0" result="hardAlpha"/>
<feOffset dy="4"/>
<feGaussianBlur stdDeviation="2"/>
<feComposite in2="hardAlpha" operator="out"/>
<feColorMatrix type="matrix" values="0 0 0 0 0 0 0 0 0 0 0 0 0 0 0 0 0 0 0.25 0"/>
<feBlend mode="normal" in2="effect1_dropShadow_1_95" result="effect2_dropShadow_1_95"/>
<feBlend mode="normal" in="SourceGraphic" in2="effect2_dropShadow_1_95" result="shape"/>
</filter>
<clipPath id="clip0_1_95">
<rect width="131" height="131" fill="white" transform="translate(134 134)"/>
</clipPath>
</defs>
</svg>
