<svg width="400" height="400" viewBox="0 0 400 400" fill="none" xmlns="http://www.w3.org/2000/svg">
<g clip-path="url(#clip0_1_91)">
<path d="M261.2 128.6H138.8C130.35 128.6 123.5 135.45 123.5 143.9V225.5C123.5 233.95 130.35 240.8 138.8 240.8H261.2C269.65 240.8 276.5 233.95 276.5 225.5V143.9C276.5 135.45 269.65 128.6 261.2 128.6Z" fill="#42A5F5"/>
<path d="M256.1 138.8H143.9C138.267 138.8 133.7 143.367 133.7 149V220.4C133.7 226.033 138.267 230.6 143.9 230.6H256.1C261.733 230.6 266.3 226.033 266.3 220.4V149C266.3 143.367 261.733 138.8 256.1 138.8Z" fill="#BBDEFB"/>
<path d="M159.2 240.8H240.8L230.6 271.4H169.4L159.2 240.8Z" fill="#607D8B"/>
<path d="M200 210.2C214.083 210.2 225.5 198.783 225.5 184.7C225.5 170.617 214.083 159.2 200 159.2C185.917 159.2 174.5 170.617 174.5 184.7C174.5 198.783 185.917 210.2 200 210.2Z" stroke="#FF5733" stroke-width="8"/>
<path d="M200 154.1V174.5" stroke="#FF5733" stroke-width="8" stroke-linecap="round"/>
</g>
<defs>
<clipPath id="clip0_1_91">
<rect width="204" height="204" fill="white" transform="translate(98 98)"/>
</clipPath>
</defs>
</svg>
